<svg xmlns="http://www.w3.org/2000/svg" xmlns:xlink="http://www.w3.org/1999/xlink" viewBox="0 0 245 32"><defs><style>.a{fill:none;}.b{clip-path:url(#a);}.c{clip-path:url(#c);}.d{fill:#201f25;}.e{clip-path:url(#d);}.f{fill:url(#e);}.g{opacity:0.4;}.h{clip-path:url(#g);}.i{fill:#fff;}.j{clip-path:url(#h);}.k{fill:url(#i);}.l{opacity:0.69;}.m{clip-path:url(#k);}.n{opacity:0.1;}.o{clip-path:url(#l);}.p{opacity:0.25;}.q{clip-path:url(#m);}</style><clipPath id="a"><rect class="a" x="10.73" y="5.25" width="234.27" height="22.56"/></clipPath><clipPath id="c"><rect class="a" x="10.73" y="5.25" width="234.27" height="22.56"/></clipPath><clipPath id="d"><path class="a" d="M15.62,5.32a.54.54,0,0,0-.39.17l-4.36,4.57a.54.54,0,0,0,0,.73L26.33,27.63a.54.54,0,0,0,.79,0L42.57,10.79a.54.54,0,0,0,0-.74L38.19,5.49a.54.54,0,0,0-.39-.17Z"/></clipPath><linearGradient id="e" x1="-6.91" y1="-0.16" x2="-6.56" y2="-0.16" gradientTransform="matrix(0, 62.57, 62.57, 0, 36.5, 438)" gradientUnits="userSpaceOnUse"><stop offset="0" stop-color="#ef4e23"/><stop offset="1" stop-color="#ec008c"/></linearGradient><clipPath id="g"><rect class="a" x="31.16" y="5.3" width="11.54" height="10.61"/></clipPath><clipPath id="h"><polygon class="a" points="31.18 15.95 31.18 15.95 31.18 15.95 31.18 15.95"/></clipPath><linearGradient id="i" x1="-8.51" y1="0.33" x2="-8.2" y2="0.33" gradientTransform="matrix(0, -54.42, -54.42, 0, 48.9, -435.55)" gradientUnits="userSpaceOnUse"><stop offset="0" stop-color="#027e97"/><stop offset="1" stop-color="#4bb666"/></linearGradient><clipPath id="k"><rect class="a" x="26.72" y="10.3" width="15.99" height="17.44"/></clipPath><clipPath id="l"><rect class="a" x="10.8" y="5.32" width="20.38" height="10.61"/></clipPath><clipPath id="m"><rect class="a" x="15.45" y="5.25" width="22.57" height="10.66"/></clipPath></defs><title>treasure-data-logo-color</title><g class="b"><g class="b"><g class="c"><path class="d" d="M67.38,11.71H63.76v10h-2v-10H58.16V10.08h9.22Z"/><path class="d" d="M78.08,17.23H75.83V21.7h-2V10.08H77.9A4.75,4.75,0,0,1,81,11a3.19,3.19,0,0,1,1.09,2.61,3.27,3.27,0,0,1-.56,2A3.58,3.58,0,0,1,80,16.76l2.61,4.84v.1H80.41ZM75.83,15.6H77.9a2.31,2.31,0,0,0,1.6-.51,1.8,1.8,0,0,0,.57-1.41,1.91,1.91,0,0,0-.53-1.44A2.26,2.26,0,0,0,78,11.71H75.83Z"/><path class="d" d="M95.69,16.51H90.92v3.56H96.5V21.7H88.9V10.08h7.54v1.63H90.92v3.21h4.77Z"/><path class="d" d="M109.53,19H105l-.94,2.71H102l4.39-11.62h1.81l4.4,11.62h-2.11Zm-3.94-1.63H109l-1.68-4.82Z"/><path class="d" d="M124.87,18.71a1.4,1.4,0,0,0-.54-1.18,6.47,6.47,0,0,0-1.94-.84,9.39,9.39,0,0,1-2.24-.94,3,3,0,0,1-1.59-2.6,2.83,2.83,0,0,1,1.15-2.31,4.64,4.64,0,0,1,3-.91,5,5,0,0,1,2.16.45,3.55,3.55,0,0,1,1.49,1.27,3.26,3.26,0,0,1,.54,1.83h-2a1.8,1.8,0,0,0-.57-1.41,2.37,2.37,0,0,0-1.63-.51,2.47,2.47,0,0,0-1.54.42,1.4,1.4,0,0,0-.55,1.18,1.27,1.27,0,0,0,.59,1.06,6.81,6.81,0,0,0,1.95.83,8.91,8.91,0,0,1,2.18.92,3.47,3.47,0,0,1,1.21,1.18,3.07,3.07,0,0,1,.38,1.56A2.77,2.77,0,0,1,125.78,21a4.83,4.83,0,0,1-3,.86,5.68,5.68,0,0,1-2.32-.47,3.88,3.88,0,0,1-1.64-1.29,3.21,3.21,0,0,1-.59-1.92h2a1.88,1.88,0,0,0,.65,1.53,2.86,2.86,0,0,0,1.88.54,2.49,2.49,0,0,0,1.58-.43A1.38,1.38,0,0,0,124.87,18.71Z"/><path class="d" d="M142,10.08v7.77a3.77,3.77,0,0,1-1.19,2.93,5.2,5.2,0,0,1-6.33,0,3.79,3.79,0,0,1-1.17-3V10.08h2v7.76a2.47,2.47,0,0,0,.59,1.78,2.31,2.31,0,0,0,1.74.61q2.33,0,2.33-2.45v-7.7Z"/><path class="d" d="M153.38,17.23h-2.25V21.7h-2V10.08h4.09a4.76,4.76,0,0,1,3.11.9,3.19,3.19,0,0,1,1.09,2.61,3.27,3.27,0,0,1-.56,2,3.58,3.58,0,0,1-1.57,1.21l2.61,4.84v.1h-2.16Zm-2.25-1.63h2.08a2.31,2.31,0,0,0,1.6-.51,1.8,1.8,0,0,0,.58-1.41,1.91,1.91,0,0,0-.53-1.44,2.26,2.26,0,0,0-1.58-.53h-2.13Z"/><path class="d" d="M171,16.51h-4.77v3.56h5.58V21.7h-7.6V10.08h7.54v1.63h-5.52v3.21H171Z"/><path class="d" d="M187.29,21.7V10.08h3.43a5.38,5.38,0,0,1,2.73.69,4.68,4.68,0,0,1,1.85,1.95A6.19,6.19,0,0,1,196,15.6v.58a6.15,6.15,0,0,1-.66,2.9A4.62,4.62,0,0,1,193.42,21a5.63,5.63,0,0,1-2.79.68Zm2-10v8.37h1.32a3,3,0,0,0,2.44-1,4.32,4.32,0,0,0,.87-2.85v-.65a4.43,4.43,0,0,0-.82-2.88,2.92,2.92,0,0,0-2.39-1Z"/><path class="d" d="M209.19,19h-4.5l-.94,2.71h-2.1L206,10.08h1.81l4.4,11.62h-2.11Zm-3.94-1.63h3.37l-1.68-4.82Z"/><path class="d" d="M225.9,11.71h-3.62v10h-2v-10h-3.59V10.08h9.22Z"/><path class="d" d="M237.87,19h-4.5l-.94,2.71h-2.1l4.39-11.62h1.81l4.4,11.62h-2.11Zm-3.94-1.63h3.37l-1.68-4.82Z"/></g><g class="e"><rect class="f" x="10.68" y="5.32" width="32.08" height="22.54"/></g><g class="c"><g class="g"><g class="h"><path class="i" d="M42.71,10.3a.53.53,0,0,0-.15-.31L38.19,5.42A.54.54,0,0,0,38,5.3L31.16,15.92Z"/></g></g></g><g class="j"><rect class="k" x="31.17" y="15.95"/></g><g class="c"><g class="l"><g class="m"><path class="i" d="M42.71,10.3,31.16,15.92,26.72,27.74a.53.53,0,0,0,.4-.17L42.57,10.72a.53.53,0,0,0,.14-.42"/></g></g><g class="n"><g class="o"><path class="i" d="M15.51,5.32a.54.54,0,0,0-.22.14L10.95,10h0l-.14.29a.56.56,0,0,1,0-.13.54.54,0,0,0,0,.24l20.38,5.51Z"/></g></g><g class="p"><g class="q"><path class="i" d="M38,5.3a.54.54,0,0,0-.22,0H15.61a.47.47,0,0,0-.16,0L31.16,15.92Z"/></g></g></g></g></g></svg>