<?xml version="1.0" encoding="utf-8"?>
<!-- Generator: Adobe Illustrator 18.1.1, SVG Export Plug-In . SVG Version: 6.00 Build 0)  -->
<svg version="1.1" id="Layer_1" xmlns="http://www.w3.org/2000/svg" xmlns:xlink="http://www.w3.org/1999/xlink" x="0px" y="0px"
	 viewBox="0 0 1047 120" enable-background="new 0 0 1047 120" xml:space="preserve">
<g>
	<path fill="#D0202E" d="M217,45.8c0-2.3-1-3.3-3.3-3.3h-59.8c-2.3,0-3.3,1-3.3,3.3v3.9c0,2.2,1,3.3,3.3,3.3h23.6v34.4
		c0,2.3,1,3.3,3.3,3.3h6.1c2.3,0,3.3-1,3.3-3.3V53.1h23.6c2.2,0,3.3-1,3.3-3.3V45.8z"/>
	<path fill="#D0202E" d="M977.3,45.8c0-2.3-1-3.3-3.3-3.3h-59.8c-2.3,0-3.3,1-3.3,3.3v3.9c0,2.2,1,3.3,3.3,3.3h23.6v34.4
		c0,2.3,1,3.3,3.3,3.3h6.1c2.3,0,3.3-1,3.3-3.3V53H974c2.2,0,3.3-1,3.3-3.3V45.8z"/>
	<path fill="#D0202E" d="M290.1,87l-12.8-12.3v-0.8l0.5-0.1c8-1,12-6.1,12-15.1c0-10.4-5.4-16.2-15.2-16.2h-46.1
		c-2.3,0-3.3,1-3.3,3.3v41.7c0,2.3,1,3.3,3.3,3.3h6.1c2.2,0,3.2-1,3.2-3.3V75.7h24.1l12.1,12.7c2.1,2,3.1,2.4,6.4,2.4h8.7
		c1.2,0,2-0.8,2-1.9C291,88.2,290.7,87.5,290.1,87z M271,65.6h-33.2V53.1H271c3.8,0,6.2,2.5,6.2,6.3C277.2,63.2,274.8,65.6,271,65.6
		z"/>
	<path fill="#D0202E" d="M362.6,83.6c0-2.2-1.1-3.3-3.3-3.3h-46.6v-9.2h38c1.9,0,2.8-0.9,2.8-2.8v-3.5c0-2-0.8-2.8-2.8-2.8h-38v-8.9
		h46.6c2.2,0,3.3-1.1,3.3-3.3v-3.9c0-2.2-1-3.3-3.3-3.3h-55.9c-2.3,0-3.3,1-3.3,3.3v41.7c0,2.3,1,3.3,3.3,3.3h55.9
		c2.2,0,3.3-1,3.3-3.3V83.6z"/>
	<path fill="#D0202E" d="M501.7,62h-34.3c-2.4,0-4-1.6-4-4c0-2.8,2-4.9,4.8-4.9h41c2.2,0,3.3-1.1,3.3-3.3v-3.9c0-2.2-1-3.3-3.3-3.3
		h-41.5c-11.6,0-17,4.9-17,15.5c0,8.5,4.4,13,12.6,13h34.3c2.4,0,4.1,1.8,4.1,4.5c0,2.9-1.9,4.7-4.9,4.7h-42.9
		c-2.2,0-3.3,1.1-3.3,3.3v3.9c0,2.2,1,3.3,3.3,3.3h43.3c11.9,0,17.2-4.7,17.2-15.3C514.4,66.8,509.9,62,501.7,62z"/>
	<path fill="#D0202E" d="M589.2,45.8c0-2.2-1-3.3-3.3-3.3h-5.7c-2.3,0-3.3,1-3.3,3.3v21.9c0,8.5-4.1,12.6-12.6,12.6h-15.6
		c-8.5,0-12.6-4.1-12.6-12.6V45.8c0-2.2-1-3.3-3.3-3.3h-6.1c-2.3,0-3.3,1-3.3,3.3v21.9c0,15.3,7.8,23.1,23.1,23.1h19.5
		c15.3,0,23.1-7.8,23.1-23.1V45.8z"/>
	<path fill="#D0202E" d="M665,87l-12.8-12.3v-0.8l0.5-0.1c8-1,12-6.1,12-15.2c0-10.3-5.4-16-15.2-16h-46.1c-2.3,0-3.3,1-3.3,3.3
		v41.7c0,2.3,1,3.3,3.3,3.3h6.1c2.2,0,3.2-1,3.2-3.3V75.7h24.1l12.1,12.7c2.1,2,3.1,2.4,6.4,2.4h8.7c1.2,0,2-0.8,2-1.9
		C665.9,88.2,665.6,87.5,665,87z M645.9,65.6h-33.2V53.1h33.2c3.8,0,6.2,2.4,6.2,6.2C652,63.2,649.7,65.6,645.9,65.6z"/>
	<path fill="#D0202E" d="M737.5,83.6c0-2.2-1.1-3.3-3.3-3.3h-46.6v-9.2h38c1.9,0,2.8-0.9,2.8-2.8v-3.5c0-2-0.8-2.8-2.8-2.8h-38v-8.9
		h46.6c2.2,0,3.3-1.1,3.3-3.3v-3.9c0-2.2-1-3.3-3.3-3.3h-55.9c-2.3,0-3.3,1-3.3,3.3v41.7c0,2.3,1,3.3,3.3,3.3h55.9
		c2.2,0,3.3-1,3.3-3.3V83.6z"/>
	<path fill="#D0202E" d="M409.9,42.5H403c-3.5,0-4.3,0.6-5.9,3l-29,41.5c-0.3,0.5-0.5,1-0.5,1.5c0,1,0.6,2.2,2.4,2.2h6.5
		c3.5,0,4.3-0.6,5.9-3l4.1-5.9h39l4.1,5.9c1.7,2.4,2.5,3,6,3h7.1c1.8,0,2.4-1.2,2.4-2.2c0-0.6-0.1-1.1-0.4-1.5l-29-41.5
		C414.2,43.1,413.4,42.5,409.9,42.5z M418.5,71.3h-24.8v-0.8l12-17.4h0.7l12,17.4V71.3z"/>
	<path fill="#D0202E" d="M885.9,42.4H879c-3.5,0-4.3,0.6-5.9,3l-29,41.5c-0.3,0.5-0.5,1-0.5,1.5c0,1,0.6,2.2,2.4,2.2h6.5
		c3.5,0,4.3-0.6,5.9-3l4.1-5.9h39l4.1,5.9c1.7,2.4,2.5,3,6,3h7.1c1.8,0,2.4-1.2,2.4-2.2c0-0.6-0.1-1.1-0.4-1.5l-29-41.5
		C890.2,43,889.4,42.4,885.9,42.4z M894.5,71.3h-24.8v-0.8l12-17.4h0.7l12,17.4V71.3z"/>
	<path fill="#D0202E" d="M1009.1,42.4h-6.9c-3.5,0-4.3,0.6-5.9,3l-29,41.5c-0.3,0.5-0.5,1-0.5,1.5c0,1,0.6,2.2,2.4,2.2h6.5
		c3.5,0,4.3-0.6,5.9-3l4.1-5.9h39l4.1,5.9c1.7,2.4,2.5,3,6,3h7.1c1.8,0,2.4-1.2,2.4-2.2c0-0.6-0.1-1.1-0.4-1.5l-29-41.5
		C1013.4,43,1012.6,42.4,1009.1,42.4z M1017.7,71.3H993v-0.8l12-17.4h0.7l12,17.4V71.3z"/>
</g>
<path fill="#CF0A2C" d="M840,58.7c0-10.4-5.4-16.2-15.2-16.2h-39.3c-0.2,0-0.5,0-0.8,0h-6.1c-2.3,0-3.3,1-3.3,3.3v0v41.6v0
	c0,2.3,1,3.3,3.3,3.3l46.1,0c9.8,0,15.3-5.8,15.2-16.2C840,68.4,840,61.3,840,58.7z M821.2,80.2H788V53h33.2c3.8,0,6.2,2.5,6.2,6.3
	c0,2.7,0,9.3,0,14.5C827.4,77.7,824.9,80.2,821.2,80.2z"/>
<path fill="#CF0A2C" d="M124.9,48.3L99.4,16.1c-1-1.2-2.4-1.9-4-1.9H31.8c-1.6,0-3,0.7-4,1.9L2.4,48.3c-1.5,2-1.5,4.7,0.2,6.6
	l48.7,54.2l0,0c0.8,1.1,2.1,1.8,3.6,1.8c2.5,0,4.5-2,4.5-4.5V47.7c0-2.5-2-4.5-4.5-4.5H19.4l14.8-18.8H93l14.9,18.8H72.4
	c-2.5,0-4.5,2-4.5,4.5v58.6c0,2.5,2,4.5,4.5,4.5c1.4,0,2.7-0.7,3.6-1.7l0,0l48.7-54.3C126.4,53,126.5,50.2,124.9,48.3z M50.4,92.8
	L14,52.2h36.4V92.8z M113.4,52.2L76.9,92.8V52.2H113.4z"/>
</svg>
